<svg xmlns="http://www.w3.org/2000/svg" width="182.76" height="155.594"><text data-name="Không có dữ liệu" font-family="Roboto-Regular, Roboto" font-size="13" transform="translate(41 152.594)"><tspan x="0" y="0">Không có dữ liệu </tspan></text><g data-name="Group 47461"><g fill="#1aa4c8" data-name="Group 1"><path d="M21.422 71.53h138.23a7.422 7.422 0 1 0 0-14.843h-37.109a7.444 7.444 0 0 1-7.422-7.422 7.289 7.289 0 0 1 7.422-7.422h9.277a7.422 7.422 0 1 0 0-14.843H36.265a7.422 7.422 0 0 0 0 14.843h13.916a7.444 7.444 0 0 1 7.419 7.422 7.289 7.289 0 0 1-7.422 7.422H21.422a7.422 7.422 0 1 0 0 14.843Z" data-name="Path 1" opacity=".15" style="isolation:isolate" transform="translate(-14.001 -17.415)"/><path d="M173.977 91H78.422a7.422 7.422 0 1 0 0 14.843h95.555a7.422 7.422 0 1 0 0-14.843Z" data-name="Path 2" opacity=".15" style="isolation:isolate" transform="translate(1.361 -34.918)"/><path d="M147.736 132.277v-1.855a7.444 7.444 0 0 0-7.422-7.422H23.422A7.444 7.444 0 0 0 16 130.422v1.855a7.444 7.444 0 0 0 7.422 7.422h116.892a7.444 7.444 0 0 0 7.422-7.422Z" data-name="Path 3" opacity=".15" style="isolation:isolate" transform="translate(9.753 -32.939)"/></g><g data-name="Group 3" transform="translate(15.77 1)"><g data-name="Group 2"><path fill="#fff" d="M89.988 120.021h-56.59a4.593 4.593 0 0 1-4.639-4.548V45.804a4.593 4.593 0 0 1 4.548-4.639h56.682a4.593 4.593 0 0 1 4.639 4.548v69.67a4.593 4.593 0 0 1-4.548 4.639Z" data-name="Path 5"/><path fill="#1aa4c8" d="M102.519 154.928h-52.88A4.593 4.593 0 0 1 45 150.381V81.639A4.593 4.593 0 0 1 49.548 77h52.971a4.593 4.593 0 0 1 4.639 4.548v68.742a4.593 4.593 0 0 1-4.548 4.639Z" data-name="Path 6" opacity=".15" style="isolation:isolate" transform="translate(-12.53 -34.907)"/><path fill="none" stroke="#1aa4c8" stroke-linecap="round" stroke-linejoin="round" stroke-width="2" d="M38.964 120.021H32.47a4.593 4.593 0 0 1-4.639-4.548V45.804a4.593 4.593 0 0 1 4.548-4.639h58.537a4.593 4.593 0 0 1 4.639 4.548v69.67a4.593 4.593 0 0 1-4.548 4.639H50.096" data-name="Path 7"/><path fill="none" stroke="#1aa4c8" stroke-linecap="round" stroke-linejoin="round" stroke-width="2" d="M42.923 120.186h0" data-name="Line 1"/><path fill="#fff" stroke="#1aa4c8" stroke-linecap="round" stroke-linejoin="round" stroke-width="2" d="M45.922 48.587h0a3.287 3.287 0 0 1-3.247-3.247v-9.277a3.287 3.287 0 0 1 3.247-3.247h0a3.287 3.287 0 0 1 3.247 3.247v9.277a3.287 3.287 0 0 1-3.247 3.247Z" data-name="Path 8"/><path fill="none" stroke="#1aa4c8" stroke-linecap="round" stroke-linejoin="round" stroke-width="2" d="M27.831 53.597h67.723" data-name="Line 2"/></g><path fill="#1aa4c8" d="M139.085 142.567H80.639A4.593 4.593 0 0 1 76 138.019v-73.38A4.593 4.593 0 0 1 80.548 60h58.537a4.593 4.593 0 0 1 4.639 4.548v73.381a4.593 4.593 0 0 1-4.548 4.639Z" data-name="Path 9" opacity=".5" style="isolation:isolate" transform="translate(-14.771 -33.678)"/><circle cx="3.577" cy="3.577" r="3.577" fill="none" stroke="#1aa4c8" stroke-linecap="round" stroke-linejoin="round" stroke-width="2" data-name="Ellipse 1" transform="translate(65.817)"/><circle cx="3.577" cy="3.577" r="3.577" fill="none" stroke="#1aa4c8" stroke-linecap="round" stroke-linejoin="round" stroke-width="2" data-name="Ellipse 2" transform="translate(0 48.647)"/><circle cx="4.292" cy="4.292" r="4.292" fill="none" stroke="#1aa4c8" stroke-linecap="round" stroke-linejoin="round" stroke-width="2" data-name="Ellipse 3" transform="translate(144.51 108.74)"/><path fill="#fff" stroke="#1aa4c8" stroke-linecap="round" stroke-linejoin="round" stroke-width="2" d="M78.856 22.607h5.566a10.679 10.679 0 0 1 21.338 0h18.554a4.593 4.593 0 0 1 4.639 4.548v73.381a4.593 4.593 0 0 1-4.548 4.639H65.868a4.593 4.593 0 0 1-4.639-4.544V27.25a4.593 4.593 0 0 1 4.548-4.643h3.8" data-name="Path 10"/><path fill="none" stroke="#1aa4c8" stroke-linecap="round" stroke-linejoin="round" stroke-width="2" d="M75.832 22.893h0" data-name="Line 6"/><path fill="none" stroke="#1aa4c8" stroke-linecap="round" stroke-linejoin="round" stroke-width="2" d="M61.524 111.602H72.97" data-name="Line 7"/><path fill="none" stroke="#1aa4c8" stroke-linecap="round" stroke-linejoin="round" stroke-width="2" d="M77.263 111.602h1.431" data-name="Line 8"/><path fill="none" stroke="#1aa4c8" stroke-linecap="round" stroke-linejoin="round" stroke-width="2" d="M84.422 111.673h37.109a12.839 12.839 0 0 0 9.277-4.639" data-name="Path 12"/><ellipse cx="4.292" cy="3.577" fill="none" stroke="#1aa4c8" stroke-linecap="round" stroke-linejoin="round" stroke-width="2" data-name="Ellipse 4" rx="4.292" ry="3.577" transform="translate(91.571 18.6)"/><path fill="#1aa4c8" d="M143.566 55H138a4.593 4.593 0 0 1 4.639 4.548v74.308a4.593 4.593 0 0 1-4.548 4.639h5.475a4.593 4.593 0 0 0 4.639-4.548V59.639A4.593 4.593 0 0 0 143.657 55Z" data-name="Path 14" opacity=".15" style="isolation:isolate" transform="translate(-19.252 -33.316)"/></g></g></svg>